<svg width="139" height="32" viewBox="0 0 139 32" fill="none" xmlns="http://www.w3.org/2000/svg">
  <path d="M32 0C35.866 0 39 3.13401 39 7V25C39 28.866 35.866 32 32 32H7C3.13401 32 0 28.866 0 25V7C0 3.13401 3.13401 0 7 0H32Z" fill="currentColor"/>
  <path d="M16.5 8C19.5376 8 22 10.4624 22 13.5V24H18V14C18 12.8954 17.1046 12 16 12C14.8954 12 14 12.8954 14 14V24H10V14C10 12.8954 9.10457 12 8 12C6.89543 12 6 12.8954 6 14V24H2V13.5C2 10.4624 4.46243 8 7.5 8C9.42547 8 11.1358 8.89421 12.2 10.2679C13.2642 8.89421 14.5745 8 16.5 8Z" fill="white"/>
  <path d="M47.14 23V9.2H51.02V20.06H56.9V23H47.14Z" fill="currentColor"/>
  <!-- Rest of the text paths for "HUMONI" -->
</svg>