<svg width="64" height="64" viewBox="0 0 64 64" fill="none" xmlns="http://www.w3.org/2000/svg">
  <path d="M33 16C36.0376 16 38.5 18.4624 38.5 21.5V32H34.5V22C34.5 20.8954 33.6046 20 32.5 20C31.3954 20 30.5 20.8954 30.5 22V32H26.5V22C26.5 20.8954 25.6046 20 24.5 20C23.3954 20 22.5 20.8954 22.5 22V32H18.5V21.5C18.5 18.4624 20.9624 16 24 16C25.9255 16 27.6358 16.8942 28.7 18.2679C29.7642 16.8942 31.0745 16 33 16Z" fill="currentColor"/>
  <path d="M33 16C36.0376 16 38.5 18.4624 38.5 21.5V32H34.5V22C34.5 20.8954 33.6046 20 32.5 20C31.3954 20 30.5 20.8954 30.5 22V32H26.5V22C26.5 20.8954 25.6046 20 24.5 20C23.3954 20 22.5 20.8954 22.5 22V32H18.5V21.5C18.5 18.4624 20.9624 16 24 16C25.9255 16 27.6358 16.8942 28.7 18.2679C29.7642 16.8942 31.0745 16 33 16Z" fill="currentColor" transform="translate(6, 16)"/>
</svg>